<?xml version="1.0" encoding="UTF-8"?>
<svg width="154px" height="14px" viewBox="0 0 154 14" version="1.1" xmlns="http://www.w3.org/2000/svg" xmlns:xlink="http://www.w3.org/1999/xlink">
    <!-- Generator: Sketch 51.3 (57544) - http://www.bohemiancoding.com/sketch -->
    <title>Logo</title>
    <desc>Created with Sketch.</desc>
    <defs></defs>
    <g id="Page-1" stroke="none" stroke-width="1" fill="none" fill-rule="evenodd">
        <g id="About" transform="translate(-40.000000, -44.000000)" fill="#333333">
            <g id="Menu-Bar" transform="translate(40.000000, 44.000000)">
                <g id="Logo">
                    <path d="M5.732,0.4 C7.01600642,0.4 8.16199496,0.66699733 9.17,1.201 C10.178005,1.73500267 10.9609972,2.47899523 11.519,3.433 C12.0770028,4.38700477 12.356,5.47599388 12.356,6.7 C12.356,7.92400612 12.0710028,9.01299523 11.501,9.967 C10.9309971,10.9210048 10.1360051,11.6649973 9.116,12.199 C8.0959949,12.7330027 6.93200654,13 5.624,13 L0.386,13 L0.386,0.4 L5.732,0.4 Z M5.804,10.606 C6.50000348,10.606 7.12699721,10.4410017 7.685,10.111 C8.24300279,9.78099835 8.67799844,9.32200294 8.99,8.734 C9.30200156,8.14599706 9.458,7.47400378 9.458,6.718 C9.458,5.96199622 9.29300165,5.284003 8.963,4.684 C8.63299835,4.083997 8.18300285,3.61900165 7.613,3.289 C7.04299715,2.95899835 6.3980036,2.794 5.678,2.794 L3.23,2.794 L3.23,10.606 L5.804,10.606 Z M41.576,0.4 L44.276,0.4 L44.276,13 L41.684,13 L35.582,4.9 L35.582,13 L32.864,13 L32.864,0.4 L35.456,0.4 L41.576,8.536 L41.576,0.4 Z M57.008,6.646 L59.474,6.646 L59.474,11.542 C58.8019966,12.0340025 57.9980047,12.4329985 57.062,12.739 C56.1259953,13.0450015 55.2260043,13.198 54.362,13.198 C53.1019937,13.198 51.9620051,12.9130028 50.942,12.343 C49.9219949,11.7729971 49.1180029,10.9930049 48.53,10.003 C47.9419971,9.01299505 47.648,7.90600612 47.648,6.682 C47.648,5.46999394 47.947997,4.36900495 48.548,3.379 C49.148003,2.38899505 49.9729948,1.61200282 51.023,1.048 C52.0730053,0.48399718 53.2399936,0.202 54.524,0.202 C55.4600047,0.202 56.3749955,0.36999832 57.269,0.706 C58.1630045,1.04200168 58.9339968,1.49799712 59.582,2.074 L57.98,4.108 C57.5119977,3.66399778 56.9720031,3.31600126 56.36,3.064 C55.7479969,2.81199874 55.1360031,2.686 54.524,2.686 C53.7919963,2.686 53.123003,2.86299823 52.517,3.217 C51.910997,3.57100177 51.4340017,4.05099697 51.086,4.657 C50.7379983,5.26300303 50.564,5.93799628 50.564,6.682 C50.564,7.42600372 50.7409982,8.10699691 51.095,8.725 C51.4490018,9.34300309 51.928997,9.82899823 52.535,10.183 C53.141003,10.5370018 53.8099963,10.714 54.542,10.714 C54.9140019,10.714 55.3159978,10.6510006 55.748,10.525 C56.1800022,10.3989994 56.599998,10.2280011 57.008,10.012 L57.008,6.646 Z M72.17,0.4 L74.87,0.4 L74.87,13 L72.278,13 L66.176,4.9 L66.176,13 L63.458,13 L63.458,0.4 L66.05,0.4 L72.17,8.536 L72.17,0.4 Z M87.602,6.646 L90.068,6.646 L90.068,11.542 C89.3959966,12.0340025 88.5920047,12.4329985 87.656,12.739 C86.7199953,13.0450015 85.8200043,13.198 84.956,13.198 C83.6959937,13.198 82.5560051,12.9130028 81.536,12.343 C80.5159949,11.7729971 79.7120029,10.9930049 79.124,10.003 C78.5359971,9.01299505 78.242,7.90600612 78.242,6.682 C78.242,5.46999394 78.541997,4.36900495 79.142,3.379 C79.742003,2.38899505 80.5669948,1.61200282 81.617,1.048 C82.6670053,0.48399718 83.8339936,0.202 85.118,0.202 C86.0540047,0.202 86.9689955,0.36999832 87.863,0.706 C88.7570045,1.04200168 89.5279968,1.49799712 90.176,2.074 L88.574,4.108 C88.1059977,3.66399778 87.5660031,3.31600126 86.954,3.064 C86.3419969,2.81199874 85.7300031,2.686 85.118,2.686 C84.3859963,2.686 83.717003,2.86299823 83.111,3.217 C82.504997,3.57100177 82.0280017,4.05099697 81.68,4.657 C81.3319983,5.26300303 81.158,5.93799628 81.158,6.682 C81.158,7.42600372 81.3349982,8.10699691 81.689,8.725 C82.0430018,9.34300309 82.522997,9.82899823 83.129,10.183 C83.735003,10.5370018 84.4039963,10.714 85.136,10.714 C85.5080019,10.714 85.9099978,10.6510006 86.342,10.525 C86.7740022,10.3989994 87.193998,10.2280011 87.602,10.012 L87.602,6.646 Z M96.68,7.798 C96.68,8.6980045 96.9349974,9.40899739 97.445,9.931 C97.9550026,10.4530026 98.6359957,10.714 99.488,10.714 C100.316004,10.714 100.975998,10.4560026 101.468,9.94 C101.960002,9.42399742 102.206,8.71000456 102.206,7.798 L102.206,0.4 L105.05,0.4 L105.05,7.798 C105.05,8.90200552 104.825002,9.85899595 104.375,10.669 C103.924998,11.479004 103.280004,12.1029978 102.44,12.541 C101.599996,12.9790022 100.610006,13.198 99.47,13.198 C98.3299943,13.198 97.3340043,12.9790022 96.482,12.541 C95.6299957,12.1029978 94.9760023,11.479004 94.52,10.669 C94.0639977,9.85899595 93.836,8.90200552 93.836,7.798 L93.836,0.4 L96.68,0.4 L96.68,7.798 Z M119.762,0.4 L115.172,8.932 L115.172,13 L112.328,13 L112.328,9.004 L107.666,0.4 L110.528,0.4 L113.75,6.052 L116.9,0.4 L119.762,0.4 Z M122.594,0.4 L132.188,0.4 L132.188,2.758 L125.438,2.758 L125.438,5.494 L131.504,5.494 L131.504,7.852 L125.438,7.852 L125.438,10.642 L132.386,10.642 L132.386,13 L122.594,13 L122.594,0.4 Z M144.83,0.4 L147.53,0.4 L147.53,13 L144.938,13 L138.836,4.9 L138.836,13 L136.118,13 L136.118,0.4 L138.71,0.4 L144.83,8.536 L144.83,0.4 Z M152.522,10.3 C152.930002,10.3 153.262999,10.4319987 153.521,10.696 C153.779001,10.9600013 153.908,11.3019979 153.908,11.722 C153.908,12.1420021 153.779001,12.4869986 153.521,12.757 C153.262999,13.0270013 152.930002,13.162 152.522,13.162 C152.125998,13.162 151.796001,13.0240014 151.532,12.748 C151.267999,12.4719986 151.136,12.130002 151.136,11.722 C151.136,11.3019979 151.267999,10.9600013 151.532,10.696 C151.796001,10.4319987 152.125998,10.3 152.522,10.3 Z M18.3478272,12.9761434 L15.8212217,11.2934219 L22.5393192,0.376143404 L29.2574168,11.2934219 L26.7308113,12.9761434 L22.5393192,6.16473809 L18.3478272,12.9761434 Z" id="Combined-Shape"></path>
                </g>
            </g>
        </g>
    </g>
</svg>